<svg xmlns="http://www.w3.org/2000/svg" width="400" height="504" viewBox="0 0 400 504">
  <rect width="400" height="504" fill="#ffffff" />
  <rect x="32" y="32" width="48" height="48" fill="#dcdcdc" />
  <rect x="84" y="32" width="48" height="48" fill="#dcdcdc" />
  <rect x="136" y="32" width="48" height="48" fill="#222222" />
  <rect x="32" y="84" width="48" height="48" fill="#222222" />
  <rect x="84" y="84" width="48" height="48" fill="#222222" />
  <rect x="136" y="84" width="48" height="48" fill="#222222" />
  <rect x="32" y="136" width="48" height="48" fill="#222222" />
  <rect x="84" y="136" width="48" height="48" fill="#dcdcdc" />
  <rect x="136" y="136" width="48" height="48" fill="#222222" />
  <rect x="32" y="188" width="48" height="48" fill="#222222" />
  <rect x="84" y="188" width="48" height="48" fill="#222222" />
  <rect x="136" y="188" width="48" height="48" fill="#222222" />
  <rect x="216" y="32" width="48" height="48" fill="#dcdcdc" />
  <rect x="268" y="32" width="48" height="48" fill="#dcdcdc" />
  <rect x="320" y="32" width="48" height="48" fill="#dcdcdc" />
  <rect x="216" y="84" width="48" height="48" fill="#222222" />
  <rect x="268" y="84" width="48" height="48" fill="#dcdcdc" />
  <rect x="320" y="84" width="48" height="48" fill="#222222" />
  <rect x="216" y="136" width="48" height="48" fill="#222222" />
  <rect x="268" y="136" width="48" height="48" fill="#dcdcdc" />
  <rect x="320" y="136" width="48" height="48" fill="#222222" />
  <rect x="216" y="188" width="48" height="48" fill="#222222" />
  <rect x="268" y="188" width="48" height="48" fill="#222222" />
  <rect x="320" y="188" width="48" height="48" fill="#dcdcdc" />
  <rect x="32" y="268" width="48" height="48" fill="#dcdcdc" />
  <rect x="84" y="268" width="48" height="48" fill="#222222" />
  <rect x="136" y="268" width="48" height="48" fill="#222222" />
  <rect x="32" y="320" width="48" height="48" fill="#222222" />
  <rect x="84" y="320" width="48" height="48" fill="#dcdcdc" />
  <rect x="136" y="320" width="48" height="48" fill="#dcdcdc" />
  <rect x="32" y="372" width="48" height="48" fill="#dcdcdc" />
  <rect x="84" y="372" width="48" height="48" fill="#dcdcdc" />
  <rect x="136" y="372" width="48" height="48" fill="#222222" />
  <rect x="32" y="424" width="48" height="48" fill="#222222" />
  <rect x="84" y="424" width="48" height="48" fill="#222222" />
  <rect x="136" y="424" width="48" height="48" fill="#dcdcdc" />
  <rect x="216" y="268" width="48" height="48" fill="#222222" />
  <rect x="268" y="268" width="48" height="48" fill="#dcdcdc" />
  <rect x="320" y="268" width="48" height="48" fill="#dcdcdc" />
  <rect x="216" y="320" width="48" height="48" fill="#222222" />
  <rect x="268" y="320" width="48" height="48" fill="#222222" />
  <rect x="320" y="320" width="48" height="48" fill="#dcdcdc" />
  <rect x="216" y="372" width="48" height="48" fill="#222222" />
  <rect x="268" y="372" width="48" height="48" fill="#dcdcdc" />
  <rect x="320" y="372" width="48" height="48" fill="#dcdcdc" />
  <rect x="216" y="424" width="48" height="48" fill="#222222" />
  <rect x="268" y="424" width="48" height="48" fill="#222222" />
  <rect x="320" y="424" width="48" height="48" fill="#222222" />
</svg>